<svg width="163" height="22" viewBox="0 0 163 22" fill="none" xmlns="http://www.w3.org/2000/svg">
<path d="M65.83 15V9.27H68.46V8.3H62.12V9.27H64.76V15H65.83ZM74.8518 15V14.03H70.5718V12.11H74.7018V11.15H70.5718V9.27H74.8518V8.3H69.4918V15H74.8518ZM77.173 15V12.4H78.403C79.243 12.4 79.553 12.62 79.853 13.15L80.923 15H82.163L81.043 13.06C80.803 12.64 80.563 12.34 80.043 12.2V12.13C81.303 12.06 82.033 11.38 82.033 10.27C82.033 9.02 81.093 8.3 79.573 8.3H76.093V15H77.173ZM77.173 9.27H79.563C80.463 9.27 80.913 9.6 80.913 10.42C80.913 11.26 80.463 11.57 79.563 11.57H77.173V9.27ZM89.1117 15V14.03H84.5517V13.95L89.0017 9.27V8.3H83.1717V9.27H87.4117V9.35L83.0417 14.03V15H89.1117ZM96.2402 15V14.03H91.6802V13.95L96.1302 9.27V8.3H90.3002V9.27H94.5402V9.35L90.1702 14.03V15H96.2402ZM100.909 15V12.71L103.889 8.3H102.559L100.989 10.68L100.439 11.53H100.359L99.7988 10.68L98.2188 8.3H96.8987L99.8388 12.69V15H100.909ZM109.634 15.1C111.464 15.1 112.574 14.4 112.574 13.13C112.574 12.2 111.994 11.66 111.024 11.49V11.41C111.884 11.27 112.334 10.73 112.334 9.97C112.334 8.83 111.364 8.2 109.654 8.2C107.574 8.2 106.614 9.18 106.614 10.49V10.58H107.754V10.51C107.754 9.63 108.194 9.22 109.564 9.22C110.864 9.22 111.264 9.53 111.264 10.18C111.264 10.78 110.844 11.08 110.034 11.08H108.314V11.98H110.184C111.024 11.98 111.484 12.29 111.484 12.97C111.484 13.76 110.984 14.08 109.594 14.08C108.114 14.08 107.754 13.67 107.754 12.79V12.65H106.614V12.81C106.614 14.17 107.534 15.1 109.634 15.1ZM116.837 15C118.917 15 120.227 13.72 120.227 11.65C120.227 9.58 118.917 8.3 116.837 8.3H113.787V15H116.837ZM116.837 9.27C118.387 9.27 119.087 9.93 119.087 11.65C119.087 13.37 118.387 14.03 116.837 14.03H114.857V9.27H116.837ZM126.351 15.1C128.331 15.1 129.161 14.16 129.161 13.14C129.161 12.16 128.501 11.55 127.161 11.31L125.531 11.03C124.741 10.86 124.401 10.67 124.401 10.09C124.401 9.49 124.881 9.19 126.101 9.19C127.491 9.19 127.981 9.6 127.981 10.42V10.55H129.051V10.49C129.051 9.18 128.161 8.2 126.201 8.2C124.121 8.2 123.321 9.18 123.321 10.15C123.321 11.25 124.121 11.77 125.251 11.97L126.891 12.24C127.741 12.4 128.081 12.62 128.081 13.2C128.081 13.83 127.631 14.11 126.351 14.11C124.881 14.11 124.411 13.71 124.411 12.91V12.75H123.331V12.81C123.331 14.22 124.351 15.1 126.351 15.1ZM133.658 15V9.27H136.288V8.3H129.948V9.27H132.588V15H133.658ZM140.42 15.1C142.43 15.1 143.57 14.04 143.57 12.22V8.3H142.49V12.15C142.49 13.5 141.89 14.06 140.42 14.06C138.95 14.06 138.35 13.5 138.35 12.15V8.3H137.28V12.22C137.28 14.04 138.42 15.1 140.42 15.1ZM148.037 15C150.117 15 151.427 13.72 151.427 11.65C151.427 9.58 150.117 8.3 148.037 8.3H144.987V15H148.037ZM148.037 9.27C149.587 9.27 150.287 9.93 150.287 11.65C150.287 13.37 149.587 14.03 148.037 14.03H146.057V9.27H148.037ZM153.711 15V8.3H152.631V15H153.711ZM158.401 15.1C160.521 15.1 161.901 13.74 161.901 11.65C161.901 9.56 160.521 8.2 158.401 8.2C156.301 8.2 154.911 9.56 154.911 11.65C154.911 13.74 156.301 15.1 158.401 15.1ZM158.401 14.06C156.811 14.06 156.051 13.32 156.051 11.65C156.051 9.98 156.811 9.23 158.401 9.23C159.991 9.23 160.761 9.98 160.761 11.65C160.761 13.32 159.991 14.06 158.401 14.06Z" fill="black"/>
<path d="M33.806 9.3353C33.7885 9.26079 33.7688 9.18683 33.7492 9.11288C33.6123 8.60264 33.4204 8.10454 33.1786 7.62079C33.1364 7.53634 33.0929 7.45273 33.0477 7.36912C32.7909 6.8953 32.4864 6.43583 32.1358 5.99403C32.0689 5.90959 31.9998 5.8257 31.9294 5.74236C31.523 5.26109 31.062 4.80163 30.5527 4.36727C30.4534 4.28228 30.3519 4.19866 30.2487 4.1156C29.6908 3.6669 29.0805 3.24662 28.4225 2.85973C28.2766 2.7739 28.1278 2.69057 27.9776 2.60806C27.1682 2.16404 26.2939 1.76777 25.365 1.42697C25.1266 1.33949 24.8848 1.2556 24.6396 1.17529C22.3408 0.423868 19.7457 0 17 0C14.2543 0 11.6592 0.423868 9.36128 1.17502C9.11605 1.25532 8.87424 1.33921 8.63583 1.42669C7.70696 1.76777 6.8331 2.16377 6.02321 2.60778C5.87308 2.69029 5.72424 2.77363 5.57838 2.85945C4.92032 3.24634 4.31003 3.66662 3.75176 4.11532C3.64855 4.19839 3.54705 4.282 3.44768 4.367C2.93846 4.80163 2.47743 5.26082 2.071 5.74208C2.00063 5.82542 1.93154 5.90903 1.86458 5.99375C1.51401 6.43556 1.2095 6.89502 0.952761 7.36884C0.907554 7.45218 0.864053 7.53607 0.821831 7.62051C0.580016 8.10426 0.388099 8.60236 0.251198 9.1126C0.231153 9.18656 0.211962 9.26079 0.194476 9.3353C0.0665312 9.87838 0 10.4342 0 10.9999C0 11.5656 0.0665312 12.1216 0.194476 12.6644C0.211962 12.7389 0.23158 12.8129 0.251198 12.8871C0.388099 13.3974 0.580016 13.8955 0.821831 14.3792C0.864053 14.4637 0.907554 14.5475 0.952761 14.6309C1.2095 15.1047 1.51401 15.5644 1.86458 16.0062C1.93154 16.0907 2.00063 16.1746 2.071 16.2579C2.47743 16.7392 2.93846 17.1987 3.44768 17.633C3.54705 17.718 3.64855 17.8016 3.75176 17.8847C4.3096 18.3334 4.9199 18.7537 5.57796 19.1405C5.72382 19.2264 5.87266 19.3097 6.02278 19.3922C6.83224 19.8362 7.70653 20.2322 8.63541 20.5733C8.87381 20.6608 9.11563 20.7447 9.36085 20.825C11.6592 21.5761 14.2543 22 17 22C19.7457 22 22.3408 21.5761 24.6391 20.825C24.8844 20.7447 25.1262 20.6608 25.3646 20.5733C26.2935 20.2322 27.1673 19.8362 27.9772 19.3922C28.1273 19.3097 28.2762 19.2264 28.422 19.1405C29.0801 18.7537 29.6904 18.3334 30.2482 17.8847C30.3514 17.8016 30.4529 17.718 30.5523 17.633C31.0615 17.1984 31.5226 16.7392 31.929 16.2579C31.9994 16.1746 32.0685 16.091 32.1354 16.0062C32.486 15.5644 32.7905 15.1047 33.0472 14.6309C33.0924 14.5475 33.1359 14.4637 33.1782 14.3792C33.42 13.8955 33.6119 13.3974 33.7488 12.8871C33.7688 12.8132 33.788 12.7392 33.8055 12.6647C33.9335 12.1216 34 11.5658 34 11.0001C34 10.4344 33.9335 9.87838 33.8055 9.33558L33.806 9.3353ZM33.6068 10.874H31.6224C31.6147 10.3619 31.5609 9.85768 31.4629 9.36427H33.42C33.5368 9.85713 33.5978 10.3616 33.6072 10.874H33.6068ZM33.4196 12.6354H31.4624C31.5605 12.142 31.6143 11.6379 31.6219 11.1257H33.6064C33.597 11.6381 33.536 12.1426 33.4191 12.6354H33.4196ZM21.0008 21.3131C21.4013 21.1708 21.7911 21.0074 22.169 20.8247H22.7626C22.1937 21.0157 21.606 21.179 21.0008 21.3131ZM11.2382 20.8247H11.8319C12.2098 21.0074 12.5996 21.1708 13 21.3131C12.3953 21.179 11.8072 21.0157 11.2382 20.8247ZM0.393643 11.1257H2.37849C2.38617 11.6379 2.4399 12.142 2.53799 12.6354H0.580868C0.464012 12.1426 0.403026 11.6381 0.393643 11.1257ZM0.580868 9.36427H2.53799C2.4399 9.85768 2.38617 10.3619 2.37849 10.874H0.393643C0.402599 10.3616 0.464012 9.85713 0.580868 9.36427ZM12.9996 0.686577C12.5991 0.82897 12.2098 0.992336 11.8319 1.17474H11.2382C11.8067 0.983781 12.3948 0.820416 12.9996 0.686577ZM22.7618 1.17474H22.1681C21.7902 0.99206 21.4004 0.82897 21.0004 0.686577C21.6052 0.820692 22.1933 0.984057 22.7618 1.17474ZM31.2309 10.8738H28.5005C28.4945 10.3616 28.4523 9.85741 28.3747 9.364H31.0705C31.1707 9.85685 31.2227 10.3613 31.2309 10.8738ZM27.9849 12.6352H25.4759C25.5335 12.1418 25.565 11.6376 25.5693 11.1254H28.1099C28.1039 11.6379 28.0629 12.1423 27.9849 12.6352ZM27.5473 14.3789H25.156C25.278 13.8952 25.3748 13.3971 25.4435 12.8868H27.9376C27.8437 13.3976 27.7128 13.8957 27.5469 14.3789H27.5473ZM6.06202 12.8868H8.55608C8.62517 13.3971 8.72156 13.8952 8.84353 14.3789H6.45225C6.28635 13.8957 6.15542 13.3976 6.06159 12.8868H6.06202ZM5.89014 11.1254H8.4307C8.43539 11.6376 8.46695 12.1418 8.5241 12.6352H6.0151C5.93706 12.1423 5.89611 11.6379 5.89014 11.1254ZM6.0151 9.364H8.5241C8.46652 9.85741 8.43496 10.3616 8.4307 10.8738H5.89014C5.89611 10.3613 5.93706 9.85685 6.0151 9.364ZM6.45267 7.62024H8.84396C8.72198 8.10398 8.62517 8.60209 8.55651 9.11233H6.06244C6.15627 8.60153 6.2872 8.10343 6.4531 7.62024H6.45267ZM27.938 9.11233H25.4439C25.3748 8.60209 25.278 8.10398 25.1565 7.62024H27.5478C27.7137 8.10343 27.8446 8.60153 27.9384 9.11233H27.938ZM25.1791 10.8738H22.5873C22.5844 10.3605 22.5652 9.8563 22.5293 9.364H25.087C25.1445 9.85685 25.1744 10.3613 25.1791 10.8738ZM25.087 12.6352H22.5293C22.5652 12.1429 22.5844 11.6387 22.5873 11.1254H25.1791C25.1744 11.6379 25.1445 12.1423 25.087 12.6352ZM24.765 14.3789H22.3293C22.4061 13.8963 22.4658 13.3979 22.5089 12.8868H25.0528C24.9837 13.3976 24.8874 13.8957 24.765 14.3789ZM8.94717 12.8868H11.4911C11.5342 13.3979 11.5939 13.8963 11.6707 14.3789H9.23504C9.11307 13.8957 9.01668 13.3976 8.94717 12.8868ZM8.82093 11.1254H11.4127C11.4156 11.6387 11.4348 12.1429 11.4707 12.6352H8.91305C8.85547 12.1423 8.82562 11.6379 8.82093 11.1254ZM8.91305 9.364H11.4707C11.4348 9.8563 11.4156 10.3605 11.4127 10.8738H8.82093C8.82562 10.3613 8.85547 9.85685 8.91305 9.364ZM9.23504 7.62024H11.6707C11.5939 8.10288 11.5342 8.60126 11.4911 9.11233H8.94717C9.01626 8.60153 9.11264 8.10343 9.23504 7.62024ZM25.0528 9.11233H22.5089C22.4658 8.60126 22.4061 8.10288 22.3293 7.62024H24.765C24.8869 8.10343 24.9833 8.60153 25.0528 9.11233ZM22.1992 10.8738H20.0361C20.0344 10.3712 20.0238 9.86651 20.0033 9.364H22.1365C22.1749 9.85823 22.1958 10.3624 22.1988 10.8738H22.1992ZM22.137 12.6352H20.0037C20.0242 12.1327 20.0348 11.6279 20.0366 11.1254H22.1997C22.1967 11.6368 22.1758 12.1409 22.1374 12.6352H22.137ZM21.9259 14.3789H19.8945C19.9363 13.8883 19.9692 13.3894 19.9926 12.8868H22.1161C22.0704 13.3965 22.0065 13.8949 21.9259 14.3789ZM21.5796 16.006H19.7175C19.7777 15.5589 19.8293 15.0992 19.8724 14.6306H21.8824C21.7971 15.1047 21.6956 15.5639 21.5796 16.006ZM12.1181 14.6306H14.1281C14.1711 15.0992 14.2232 15.5589 14.2829 16.006H12.4209C12.3049 15.5639 12.2034 15.1047 12.1181 14.6306ZM11.8843 12.8868H14.0074C14.0308 13.3891 14.0637 13.8883 14.1055 14.3789H12.0746C11.994 13.8949 11.93 13.3965 11.8843 12.8868ZM11.8008 11.1254H13.9634C13.9652 11.6279 13.9758 12.1327 13.9963 12.6352H11.863C11.8246 12.1409 11.8037 11.6368 11.8008 11.1254ZM11.863 9.364H13.9963C13.9758 9.86651 13.9652 10.3712 13.9634 10.8738H11.8008C11.8037 10.3624 11.8246 9.85823 11.863 9.364ZM12.0741 7.62024H14.105C14.0632 8.11088 14.0304 8.60981 14.0069 9.11233H11.8839C11.9296 8.60264 11.9935 8.10426 12.0741 7.62024ZM12.4204 5.99348H14.2825C14.2223 6.44053 14.1707 6.90027 14.1276 7.36856H12.1176C12.2029 6.89447 12.3044 6.43528 12.4204 5.99348ZM21.8819 7.36856H19.8719C19.8289 6.90027 19.7768 6.44025 19.7171 5.99348H21.5791C21.6951 6.43556 21.7966 6.89475 21.8819 7.36856ZM22.1157 9.11233H19.9922C19.9687 8.61009 19.9359 8.11088 19.8941 7.62024H21.9254C22.006 8.10426 22.07 8.60264 22.1157 9.11233ZM19.6467 10.8738H17.1945V9.364H19.6156C19.6348 9.85327 19.6455 10.3572 19.6472 10.8738H19.6467ZM19.6152 12.6352H17.194V11.1254H19.6463C19.6446 11.642 19.634 12.1459 19.6148 12.6352H19.6152ZM19.5073 14.3789H17.1945V12.8868H19.6045C19.5811 13.401 19.5487 13.8993 19.5073 14.3789ZM19.3265 16.006H17.194V14.6306H19.4838C19.4395 15.1083 19.3866 15.5675 19.3265 16.006ZM19.0531 17.6327H17.194V16.2576H19.2915C19.2207 16.7433 19.1405 17.2025 19.0531 17.6327ZM18.6829 19.1403H17.194V17.8844H18.9998C18.9017 18.3381 18.7959 18.7584 18.6829 19.1403ZM14.9994 17.8844H16.8051V19.1403H15.3162C15.2032 18.7584 15.097 18.3383 14.9994 17.8844ZM14.7077 16.2576H16.8051V17.6327H14.9461C14.8586 17.2022 14.7789 16.743 14.7077 16.2576ZM14.5153 14.6306H16.8051V16.006H14.6727C14.6126 15.5675 14.5597 15.1083 14.5153 14.6306ZM14.395 12.8868H16.8051V14.3789H14.4919C14.4505 13.8993 14.4185 13.401 14.3946 12.8868H14.395ZM14.3528 11.1254H16.8055V12.6352H14.3844C14.3652 12.1459 14.3545 11.642 14.3528 11.1254ZM14.3844 9.364H16.8055V10.8738H14.3528C14.3545 10.3572 14.3652 9.85327 14.3844 9.364ZM14.4923 7.62024H16.8055V9.11233H14.3955C14.4189 8.59822 14.4513 8.09985 14.4927 7.62024H14.4923ZM14.6731 5.99348H16.8055V7.36856H14.5157C14.5601 6.89088 14.613 6.43197 14.6731 5.99348ZM14.9465 4.36672H16.8055V5.74181H14.7081C14.7789 5.25612 14.8591 4.79693 14.9465 4.36672ZM15.3167 2.85917H16.8055V4.11505H14.9998C15.0979 3.66138 15.2037 3.2411 15.3167 2.85917ZM19.0002 4.11505H17.1945V2.85917H18.6833C18.7963 3.2411 18.9025 3.66138 19.0002 4.11505ZM19.2919 5.74181H17.1945V4.36672H19.0535C19.1409 4.79721 19.2207 5.2564 19.2919 5.74181ZM19.4843 7.36856H17.1945V5.99348H19.3269C19.387 6.43197 19.4399 6.89088 19.4843 7.36856ZM19.6045 9.11233H17.1945V7.62024H19.5073C19.5487 8.09985 19.5806 8.59822 19.6045 9.11233ZM19.6821 5.74181C19.6139 5.26551 19.5363 4.80521 19.4493 4.36672H21.0571C21.2247 4.80025 21.3766 5.25999 21.5113 5.74181H19.6821ZM19.3981 4.11505C19.3043 3.66993 19.1998 3.24965 19.0859 2.85917H20.353C20.5701 3.24386 20.7722 3.66414 20.9573 4.11505H19.3985H19.3981ZM19.0096 2.6075C18.871 2.1668 18.7192 1.76998 18.5537 1.42641H19.3235C19.6361 1.75922 19.9316 2.15604 20.2059 2.6075H19.01H19.0096ZM18.4249 1.17474C18.2551 0.863189 18.0726 0.605998 17.8773 0.412553C18.2922 0.565433 18.6923 0.824555 19.0697 1.17474H18.4244H18.4249ZM18.6061 2.6075H17.1945V1.42669H18.1481C18.308 1.75728 18.462 2.15245 18.6066 2.60778L18.6061 2.6075ZM16.8055 2.6075H15.3934C15.538 2.15218 15.692 1.75701 15.8519 1.42641H16.8055V2.6075ZM15.4463 1.42641C15.2809 1.77025 15.1286 2.16708 14.9904 2.6075H13.7946C14.0684 2.15576 14.3639 1.75922 14.677 1.42641H15.4468H15.4463ZM14.9299 1.17474C15.3077 0.824555 15.7073 0.565433 16.1223 0.412553C15.927 0.605998 15.7444 0.863189 15.5747 1.17474H14.9294H14.9299ZM14.9141 2.85917C14.7998 3.24965 14.6957 3.66993 14.6019 4.11505H13.0431C13.2282 3.66414 13.4303 3.24386 13.6474 2.85917H14.9141ZM14.5503 4.36672C14.4633 4.80549 14.3857 5.26578 14.3174 5.74181H12.4882C12.6226 5.25999 12.7748 4.80025 12.9424 4.36672H14.5503ZM14.3174 16.2576C14.3857 16.7339 14.4633 17.1942 14.5503 17.6327H12.9424C12.7748 17.1992 12.623 16.7395 12.4882 16.2576H14.3174ZM14.6015 17.8844C14.6953 18.3295 14.7998 18.7498 14.9137 19.1403H13.647C13.4299 18.7556 13.2278 18.3353 13.0427 17.8844H14.6015ZM14.99 19.3919C15.1286 19.8326 15.2804 20.2295 15.4459 20.573H14.6761C14.3635 20.2402 14.0679 19.8434 13.7937 19.3919H14.9896H14.99ZM15.5747 20.8247C15.7444 21.1363 15.927 21.3934 16.1223 21.5869C15.7073 21.434 15.3073 21.1749 14.9299 20.8247H15.5751H15.5747ZM15.3934 19.3919H16.8055V20.573H15.8519C15.692 20.2424 15.538 19.847 15.3934 19.3919ZM17.194 19.3919H18.6061C18.4616 19.8473 18.3076 20.2424 18.1477 20.573H17.194V19.3919ZM18.5532 20.573C18.7187 20.2292 18.8706 19.8324 19.0092 19.3919H20.205C19.9312 19.8437 19.6357 20.2402 19.3226 20.573H18.5528H18.5532ZM19.0697 20.8247C18.6919 21.1749 18.2922 21.434 17.8773 21.5869C18.0726 21.3934 18.2551 21.1363 18.4249 20.8247H19.0701H19.0697ZM19.0851 19.1403C19.1989 18.7498 19.3034 18.3295 19.3973 17.8844H20.956C20.771 18.3353 20.5688 18.7556 20.3517 19.1403H19.0846H19.0851ZM19.4489 17.6327C19.5359 17.194 19.6135 16.7337 19.6817 16.2576H21.5109C21.3766 16.7395 21.2243 17.1992 21.0567 17.6327H19.4489ZM22.2862 7.36884C22.2044 6.89392 22.1071 6.43501 21.995 5.99375H24.2365C24.4144 6.43528 24.5696 6.89392 24.6997 7.36884H22.2862ZM21.9301 5.74208C21.7996 5.26026 21.6516 4.80052 21.4874 4.367H23.4301C23.6894 4.79997 23.9244 5.25944 24.1312 5.74208H21.9301ZM21.3872 4.11532C21.2064 3.66634 21.0085 3.24579 20.7944 2.85945H22.3327C22.6722 3.24413 22.9887 3.66331 23.2765 4.11532H21.3876H21.3872ZM20.6481 2.60778C20.3829 2.16294 20.0958 1.76722 19.7896 1.42669H20.7117C21.2064 1.75922 21.6721 2.15521 22.1024 2.60778H20.6481ZM19.5495 1.17502C19.2646 0.893268 18.9652 0.656498 18.653 0.472712C19.2305 0.628903 19.7845 0.86788 20.3108 1.17502H19.5495ZM17.1936 0.289201C17.4704 0.387442 17.7502 0.690993 18.0172 1.17502H17.1936V0.289201ZM16.8047 1.17502H15.9811C16.2481 0.691269 16.5275 0.387442 16.8047 0.289201V1.17502ZM14.4488 1.17502H13.6875C14.2138 0.867604 14.7678 0.628903 15.3452 0.472712C15.0331 0.656774 14.7341 0.893544 14.4488 1.17502ZM14.2091 1.42669C13.9029 1.7675 13.6154 2.16294 13.3506 2.60778H11.8963C12.3266 2.15521 12.7923 1.75894 13.287 1.42669H14.2091ZM13.2043 2.85945C12.9898 3.24579 12.7923 3.66634 12.6115 4.11532H10.7226C11.0105 3.66331 11.3265 3.24413 11.6664 2.85945H13.2047H13.2043ZM12.5113 4.367C12.3471 4.8008 12.1991 5.26026 12.0686 5.74208H9.86751C10.0748 5.25916 10.3094 4.79997 10.5687 4.367H12.5113ZM12.0038 5.99375C11.8916 6.43528 11.7939 6.8942 11.7125 7.36884H9.29901C9.42909 6.89392 9.58476 6.43501 9.76217 5.99375H12.0038ZM11.712 14.6306C11.7939 15.1055 11.8916 15.5644 12.0038 16.006H9.76217C9.58433 15.5644 9.42909 15.1055 9.29901 14.6306H11.7125H11.712ZM12.0682 16.2576C12.1987 16.7395 12.3467 17.1992 12.5108 17.6327H10.5682C10.3089 17.1998 10.0739 16.7403 9.86709 16.2576H12.0682ZM12.6111 17.8844C12.7919 18.3334 12.9898 18.7539 13.2039 19.1403H11.6656C11.3261 18.7556 11.0096 18.3364 10.7222 17.8844H12.6111ZM13.3502 19.3919C13.6154 19.8368 13.9025 20.2325 14.2087 20.573H13.2866C12.7919 20.2405 12.3262 19.8445 11.8959 19.3919H13.3502ZM14.4488 20.8247C14.7341 21.1065 15.0331 21.3432 15.3452 21.5273C14.7678 21.3711 14.2134 21.1321 13.6875 20.8247H14.4488ZM16.8047 21.7105C16.5279 21.6123 16.2481 21.3085 15.9811 20.8247H16.8047V21.7105ZM17.1936 20.8247H18.0172C17.7502 21.3085 17.4708 21.6123 17.1936 21.7105V20.8247ZM19.5495 20.8247H20.3108C19.7845 21.1321 19.2301 21.3708 18.653 21.5273C18.9652 21.3432 19.2646 21.1065 19.5495 20.8247ZM19.7892 20.573C20.0954 20.2322 20.3824 19.8368 20.6477 19.3919H22.102C21.6717 19.8445 21.206 20.2408 20.7112 20.573H19.7892ZM20.794 19.1403C21.0085 18.7539 21.206 18.3334 21.3868 17.8844H23.2757C22.9878 18.3364 22.6718 18.7556 22.3323 19.1403H20.794ZM21.487 17.6327C21.6512 17.1989 21.7992 16.7395 21.9297 16.2576H24.1308C23.9235 16.7406 23.6889 17.1998 23.4296 17.6327H21.487ZM21.9945 16.006C22.1067 15.5644 22.2044 15.1055 22.2862 14.6306H24.6997C24.5696 15.1055 24.414 15.5644 24.2365 16.006H21.995H21.9945ZM25.0895 7.36884C24.9599 6.89502 24.8063 6.43556 24.6298 5.99375H26.8291C27.0705 6.43528 27.2816 6.89392 27.4586 7.36884H25.0895ZM24.5257 5.74208C24.3206 5.26082 24.0886 4.80135 23.8318 4.367H25.7344C26.0866 4.79997 26.4056 5.25944 26.6867 5.74208H24.5257ZM23.6783 4.11532C23.3968 3.66662 23.0893 3.24634 22.7575 2.85945H24.2434C24.7048 3.24413 25.1343 3.66331 25.5249 4.11532H23.6779H23.6783ZM22.5332 2.60778C22.125 2.16377 21.6845 1.7675 21.2162 1.42669H22.0419C22.714 1.75922 23.3465 2.15521 23.9312 2.60778H22.5336H22.5332ZM20.8503 1.17502C20.5027 0.949563 20.1415 0.753359 19.7687 0.589717C20.3662 0.738457 20.9433 0.936593 21.4977 1.17502H20.8507H20.8503ZM13.148 1.17502H12.501C13.0555 0.936593 13.6325 0.738457 14.23 0.589717C13.8573 0.753635 13.496 0.949563 13.1484 1.17502H13.148ZM12.7821 1.42669C12.3138 1.76777 11.8733 2.16377 11.4651 2.60778H10.0675C10.6522 2.15521 11.2847 1.75894 11.9569 1.42669H12.7825H12.7821ZM11.2408 2.85945C10.909 3.24634 10.6015 3.66662 10.32 4.11532H8.47292C8.86358 3.66331 9.29304 3.24413 9.7545 2.85945H11.2404H11.2408ZM10.1669 4.367C9.91016 4.80163 9.67773 5.26082 9.47302 5.74208H7.31203C7.59309 5.25916 7.91209 4.79997 8.26437 4.367H10.1669ZM9.36896 5.99375C9.19239 6.43556 9.03886 6.89502 8.90921 7.36884H6.5401C6.71709 6.89392 6.9282 6.43501 7.16959 5.99375H9.36896ZM8.90921 14.6306C9.03886 15.1044 9.19239 15.5642 9.36896 16.006H7.16959C6.9282 15.5644 6.71709 15.1055 6.5401 14.6306H8.90921ZM9.47302 16.2576C9.67816 16.7389 9.91016 17.1984 10.1669 17.6327H8.26437C7.91209 17.1998 7.59309 16.7403 7.31203 16.2576H9.47302ZM10.3204 17.8844C10.6019 18.3331 10.9094 18.7534 11.2412 19.1403H9.75492C9.29347 18.7556 8.864 18.3364 8.47334 17.8844H10.3204ZM11.4655 19.3919C11.8737 19.836 12.3142 20.232 12.7825 20.573H11.9569C11.2847 20.2405 10.6522 19.8445 10.0675 19.3919H11.4651H11.4655ZM13.1484 20.8247C13.4965 21.0502 13.8577 21.2464 14.2304 21.4103C13.6329 21.2615 13.0559 21.0631 12.5015 20.8247H13.1489H13.1484ZM20.8507 20.8247H21.4981C20.9437 21.0631 20.3666 21.2615 19.7691 21.4103C20.1419 21.2464 20.5031 21.0502 20.8511 20.8247H20.8507ZM21.2166 20.573C21.6849 20.232 22.1255 19.836 22.5336 19.3919H23.9312C23.3465 19.8445 22.714 20.2408 22.0419 20.573H21.2162H21.2166ZM22.7579 19.1403C23.0897 18.7534 23.3972 18.3331 23.6787 17.8844H25.5258C25.1351 18.3364 24.7057 18.7556 24.2442 19.1403H22.7579ZM23.8318 17.6327C24.0886 17.1981 24.321 16.7389 24.5257 16.2576H26.6867C26.4056 16.7406 26.0866 17.1998 25.7344 17.6327H23.8318ZM24.6298 16.006C24.8063 15.5642 24.9599 15.1044 25.0895 14.6306H27.4586C27.2816 15.1055 27.0705 15.5644 26.8291 16.006H24.6298ZM25.5685 10.874C25.5638 10.3619 25.5322 9.85768 25.4751 9.36427H27.984C28.0621 9.85713 28.103 10.3616 28.109 10.874H25.5685ZM28.3312 9.1126C28.2387 8.60236 28.109 8.10426 27.9452 7.62051H30.5092C30.7216 8.10371 30.8897 8.60181 31.0099 9.1126H28.3312ZM27.8565 7.36884C27.6829 6.89502 27.4765 6.43556 27.2394 5.99375H29.5902C29.8994 6.43528 30.1698 6.89392 30.3962 7.36884H27.8565ZM27.0999 5.74208C26.8249 5.26082 26.5131 4.80135 26.1685 4.367H28.1879C28.6391 4.79997 29.0477 5.25944 29.4081 5.74208H27.0999ZM25.9629 4.11532C25.5855 3.66662 25.1727 3.24634 24.7274 2.85945H26.279C26.8701 3.24413 27.4202 3.66331 27.9209 4.11532H25.9634H25.9629ZM24.4263 2.60778C23.8787 2.16377 23.2872 1.7675 22.6586 1.42669H23.4582C24.3193 1.75922 25.1296 2.15521 25.8781 2.60778H24.4259H24.4263ZM11.341 1.42669C10.7128 1.76777 10.1213 2.16377 9.57324 2.60778H8.12107C8.86997 2.15521 9.68029 1.75894 10.5409 1.42669H11.3406H11.341ZM9.27257 2.85945C8.82732 3.24634 8.41449 3.66662 8.03705 4.11532H6.0795C6.58019 3.66331 7.13035 3.24413 7.72146 2.85945H9.273H9.27257ZM7.83106 4.367C7.48646 4.80163 7.17471 5.26082 6.89963 5.74208H4.59151C4.95188 5.25916 5.36003 4.79997 5.81167 4.367H7.83106ZM6.76017 5.99375C6.52304 6.43556 6.31705 6.89502 6.14305 7.36884H3.60335C3.82981 6.89392 4.1002 6.43501 4.4094 5.99375H6.76017ZM6.05434 7.62051C5.89057 8.10426 5.76092 8.60236 5.66837 9.1126H2.98921C3.10948 8.60181 3.27709 8.10371 3.4899 7.62051H6.05391H6.05434ZM5.62572 9.36427C5.54853 9.85768 5.50631 10.3619 5.49991 10.874H2.76957C2.77725 10.3616 2.82971 9.85713 2.92993 9.36427H5.62572ZM2.76957 11.1257H5.49991C5.50588 11.6379 5.5481 12.142 5.62572 12.6354H2.9295C2.82928 12.1426 2.77725 11.6381 2.76915 11.1257H2.76957ZM5.66837 12.8871C5.76092 13.3974 5.89057 13.8955 6.05434 14.3792H3.49033C3.27794 13.896 3.10991 13.3979 2.98964 12.8871H5.66837ZM6.14305 14.6309C6.31663 15.1047 6.52304 15.5644 6.76017 16.0062H4.4094C4.1002 15.5647 3.82981 15.1058 3.60335 14.6309H6.14305ZM6.89963 16.2579C7.17471 16.7392 7.48646 17.1987 7.83106 17.633H5.81167C5.36045 17.2 4.95188 16.7406 4.59151 16.2579H6.89963ZM8.03663 17.8847C8.41406 18.3334 8.8269 18.7537 9.27215 19.1405H7.7206C7.1295 18.7559 6.57976 18.3367 6.07907 17.8847H8.03663ZM9.57324 19.3922C10.1208 19.8362 10.7124 20.2322 11.3406 20.5733H10.5409C9.67986 20.2408 8.86997 19.8448 8.12107 19.3922H9.57324ZM22.6594 20.5733C23.2876 20.2322 23.8792 19.8362 24.4268 19.3922H25.8789C25.13 19.8448 24.3197 20.2411 23.4591 20.5733H22.6594ZM24.7279 19.1405C25.1731 18.7537 25.5859 18.3334 25.9634 17.8847H27.9209C27.4202 18.3367 26.8705 18.7559 26.2794 19.1405H24.7279ZM26.1694 17.633C26.514 17.1984 26.8257 16.7392 27.1008 16.2579H29.4089C29.0485 16.7408 28.6404 17.2 28.1888 17.633H26.1694ZM27.2403 16.0062C27.4774 15.5644 27.6834 15.1047 27.8574 14.6309H30.3971C30.1706 15.1058 29.9002 15.5647 29.591 16.0062H27.2403ZM27.9461 14.3792C28.1099 13.8955 28.2395 13.3974 28.3321 12.8871H31.0108C30.8905 13.3979 30.7229 13.896 30.5101 14.3792H27.9461ZM28.3747 12.6354C28.4519 12.142 28.4941 11.6379 28.5005 11.1257H31.2309C31.2232 11.6381 31.1707 12.1426 31.0705 12.6354H28.3747ZM33.3496 9.1126H31.4078C31.2901 8.60236 31.1251 8.10426 30.917 7.62051H32.7653C33.0135 8.10371 33.2089 8.60181 33.3496 9.1126ZM32.6335 7.36884H30.8044C30.5835 6.89502 30.3216 6.43556 30.0201 5.99375H31.6932C32.054 6.43528 32.3696 6.89392 32.634 7.36884H32.6335ZM31.4799 5.74208H29.8422C29.4925 5.26082 29.0959 4.80135 28.6579 4.367H30.0563C30.583 4.79997 31.0594 5.25944 31.4799 5.74208ZM29.7441 4.11532H28.3965C27.9167 3.66662 27.3917 3.24634 26.8253 2.85945H27.8284C28.518 3.24413 29.1599 3.66331 29.7441 4.11532ZM27.361 2.60778H26.4423C25.7459 2.16377 24.994 1.7675 24.1948 1.42669H24.5364C25.5412 1.75922 26.4867 2.15521 27.3605 2.60778H27.361ZM23.7235 1.17502H23.5708C23.4215 1.11817 23.2706 1.06353 23.1183 1.01055C23.3222 1.06298 23.5239 1.11762 23.7235 1.17502ZM10.8817 1.01055C10.7294 1.06353 10.5785 1.11845 10.4292 1.17502H10.2765C10.4761 1.11762 10.6783 1.06298 10.8817 1.01055ZM9.46278 1.42669H9.80482C9.00602 1.76777 8.25371 2.16377 7.55726 2.60778H6.63862C7.51248 2.15521 8.45799 1.75894 9.46278 1.42669ZM6.17162 2.85945H7.17471C6.60877 3.24634 6.08377 3.66662 5.60355 4.11532H4.25586C4.84014 3.66331 5.482 3.24413 6.17162 2.85945ZM3.94368 4.367H5.34211C4.90412 4.80163 4.50749 5.26082 4.15777 5.74208H2.52008C2.94059 5.25916 3.41697 4.79997 3.94368 4.367ZM2.30727 5.99375H3.98036C3.67883 6.43556 3.41697 6.89502 3.19606 7.36884H1.36645C1.63087 6.89392 1.94646 6.43501 2.30727 5.99375ZM1.23467 7.62051H3.08304C2.87492 8.10426 2.70987 8.60236 2.59216 9.1126H0.650385C0.790698 8.60181 0.986453 8.10371 1.23467 7.62051ZM0.650385 12.8868H2.59258C2.71029 13.3971 2.87534 13.8952 3.08347 14.3789H1.23467C0.986453 13.8957 0.791124 13.3976 0.650385 12.8868ZM1.36645 14.6306H3.19606C3.41697 15.1044 3.67883 15.5642 3.98036 16.006H2.30727C1.94646 15.5644 1.63087 15.1055 1.36645 14.6306ZM2.52008 16.2576H4.15777C4.50749 16.7389 4.90412 17.1984 5.34211 17.6327H3.94368C3.41697 17.1998 2.94059 16.7403 2.52008 16.2576ZM4.25586 17.8844H5.60355C6.08334 18.3331 6.60834 18.7534 7.17428 19.1403H6.1712C5.48157 18.7556 4.83972 18.3364 4.25544 17.8844H4.25586ZM6.63862 19.3919H7.55726C8.25371 19.836 9.00559 20.232 9.8044 20.573H9.46236C8.45799 20.2405 7.51205 19.8445 6.63862 19.3919ZM10.2761 20.8247H10.4288C10.5785 20.8816 10.7294 20.9365 10.8817 20.9895C10.6778 20.937 10.4757 20.8824 10.2761 20.8247ZM23.1187 20.9895C23.271 20.9365 23.422 20.8816 23.5717 20.8247H23.7243C23.5247 20.8821 23.3226 20.937 23.1187 20.9895ZM24.5376 20.5733H24.1956C24.9944 20.2322 25.7463 19.8362 26.4427 19.3922H27.3614C26.4875 19.8448 25.542 20.2411 24.5376 20.5733ZM27.8288 19.1405H26.8257C27.3917 18.7537 27.9167 18.3334 28.3965 17.8847H29.7441C29.1599 18.3367 28.518 18.7559 27.8284 19.1405H27.8288ZM30.0567 17.633H28.6583C29.0963 17.1984 29.4929 16.7392 29.8427 16.2579H31.4803C31.0598 16.7408 30.5835 17.2 30.0567 17.633ZM31.6932 16.0062H30.0201C30.3216 15.5644 30.5835 15.1047 30.8044 14.6309H32.6335C32.3691 15.1058 32.0535 15.5647 31.6927 16.0062H31.6932ZM32.7658 14.3792H30.9174C31.1255 13.8955 31.2906 13.3974 31.4083 12.8871H33.35C33.2097 13.3979 33.014 13.896 32.7658 14.3792Z" fill="url(#paint0_linear_1088_56)"/>
<path d="M50.806 9.3353C50.7885 9.26079 50.7688 9.18683 50.7492 9.11288C50.6123 8.60264 50.4204 8.10454 50.1786 7.62079C50.1364 7.53634 50.0929 7.45273 50.0477 7.36912C49.7909 6.8953 49.4864 6.43583 49.1358 5.99403C49.0689 5.90959 48.9998 5.8257 48.9294 5.74236C48.523 5.26109 48.062 4.80163 47.5527 4.36727C47.4534 4.28228 47.3519 4.19866 47.2487 4.1156C46.6908 3.6669 46.0805 3.24662 45.4225 2.85973C45.2766 2.7739 45.1278 2.69057 44.9776 2.60806C44.1682 2.16404 43.2939 1.76777 42.365 1.42697C42.1266 1.33949 41.8848 1.2556 41.6396 1.17529C39.3408 0.423868 36.7457 0 34 0C31.2543 0 28.6592 0.423868 26.3613 1.17502C26.1161 1.25532 25.8742 1.33921 25.6358 1.42669C24.707 1.76777 23.8331 2.16377 23.0232 2.60778C22.8731 2.69029 22.7242 2.77363 22.5784 2.85945C21.9203 3.24634 21.31 3.66662 20.7518 4.11532C20.6486 4.19839 20.5471 4.282 20.4477 4.367C19.9385 4.80163 19.4774 5.26082 19.071 5.74208C19.0006 5.82542 18.9315 5.90903 18.8646 5.99375C18.514 6.43556 18.2095 6.89502 17.9528 7.36884C17.9076 7.45218 17.8641 7.53607 17.8218 7.62051C17.58 8.10426 17.3881 8.60236 17.2512 9.1126C17.2312 9.18656 17.212 9.26079 17.1945 9.3353C17.0665 9.87838 17 10.4342 17 10.9999C17 11.5656 17.0665 12.1216 17.1945 12.6644C17.212 12.7389 17.2316 12.8129 17.2512 12.8871C17.3881 13.3974 17.58 13.8955 17.8218 14.3792C17.8641 14.4637 17.9076 14.5475 17.9528 14.6309C18.2095 15.1047 18.514 15.5644 18.8646 16.0062C18.9315 16.0907 19.0006 16.1746 19.071 16.2579C19.4774 16.7392 19.9385 17.1987 20.4477 17.633C20.5471 17.718 20.6486 17.8016 20.7518 17.8847C21.3096 18.3334 21.9199 18.7537 22.578 19.1405C22.7238 19.2264 22.8727 19.3097 23.0228 19.3922C23.8322 19.8362 24.7065 20.2322 25.6354 20.5733C25.8738 20.6608 26.1156 20.7447 26.3609 20.825C28.6592 21.5761 31.2543 22 34 22C36.7457 22 39.3408 21.5761 41.6391 20.825C41.8844 20.7447 42.1262 20.6608 42.3646 20.5733C43.2935 20.2322 44.1673 19.8362 44.9772 19.3922C45.1273 19.3097 45.2762 19.2264 45.422 19.1405C46.0801 18.7537 46.6904 18.3334 47.2482 17.8847C47.3514 17.8016 47.4529 17.718 47.5523 17.633C48.0615 17.1984 48.5226 16.7392 48.929 16.2579C48.9994 16.1746 49.0685 16.091 49.1354 16.0062C49.486 15.5644 49.7905 15.1047 50.0472 14.6309C50.0924 14.5475 50.1359 14.4637 50.1782 14.3792C50.42 13.8955 50.6119 13.3974 50.7488 12.8871C50.7688 12.8132 50.788 12.7392 50.8055 12.6647C50.9335 12.1216 51 11.5658 51 11.0001C51 10.4344 50.9335 9.87838 50.8055 9.33558L50.806 9.3353ZM50.6068 10.874H48.6224C48.6147 10.3619 48.5609 9.85768 48.4629 9.36427H50.42C50.5368 9.85713 50.5978 10.3616 50.6072 10.874H50.6068ZM50.4196 12.6354H48.4624C48.5605 12.142 48.6143 11.6379 48.6219 11.1257H50.6064C50.597 11.6381 50.536 12.1426 50.4191 12.6354H50.4196ZM38.0008 21.3131C38.4013 21.1708 38.7911 21.0074 39.169 20.8247H39.7626C39.1937 21.0157 38.606 21.179 38.0008 21.3131ZM28.2382 20.8247H28.8319C29.2098 21.0074 29.5996 21.1708 30 21.3131C29.3953 21.179 28.8072 21.0157 28.2382 20.8247ZM17.3936 11.1257H19.3785C19.3862 11.6379 19.4399 12.142 19.538 12.6354H17.5809C17.464 12.1426 17.403 11.6381 17.3936 11.1257ZM17.5809 9.36427H19.538C19.4399 9.85768 19.3862 10.3619 19.3785 10.874H17.3936C17.4026 10.3616 17.464 9.85713 17.5809 9.36427ZM29.9996 0.686577C29.5991 0.82897 29.2098 0.992336 28.8319 1.17474H28.2382C28.8067 0.983781 29.3948 0.820416 29.9996 0.686577ZM39.7618 1.17474H39.1681C38.7902 0.99206 38.4004 0.82897 38.0004 0.686577C38.6052 0.820692 39.1933 0.984057 39.7618 1.17474ZM48.2309 10.8738H45.5005C45.4945 10.3616 45.4523 9.85741 45.3747 9.364H48.0705C48.1707 9.85685 48.2227 10.3613 48.2309 10.8738ZM44.9849 12.6352H42.4759C42.5335 12.1418 42.565 11.6376 42.5693 11.1254H45.1099C45.1039 11.6379 45.0629 12.1423 44.9849 12.6352ZM44.5473 14.3789H42.156C42.278 13.8952 42.3748 13.3971 42.4435 12.8868H44.9376C44.8437 13.3976 44.7128 13.8957 44.5469 14.3789H44.5473ZM23.062 12.8868H25.5561C25.6252 13.3971 25.7216 13.8952 25.8435 14.3789H23.4522C23.2863 13.8957 23.1554 13.3976 23.0616 12.8868H23.062ZM22.8901 11.1254H25.4307C25.4354 11.6376 25.4669 12.1418 25.5241 12.6352H23.0151C22.9371 12.1423 22.8961 11.6379 22.8901 11.1254ZM23.0151 9.364H25.5241C25.4665 9.85741 25.435 10.3616 25.4307 10.8738H22.8901C22.8961 10.3613 22.9371 9.85685 23.0151 9.364ZM23.4527 7.62024H25.844C25.722 8.10398 25.6252 8.60209 25.5565 9.11233H23.0624C23.1563 8.60153 23.2872 8.10343 23.4531 7.62024H23.4527ZM44.938 9.11233H42.4439C42.3748 8.60209 42.278 8.10398 42.1565 7.62024H44.5478C44.7137 8.10343 44.8446 8.60153 44.9384 9.11233H44.938ZM42.1791 10.8738H39.5873C39.5844 10.3605 39.5652 9.8563 39.5293 9.364H42.087C42.1445 9.85685 42.1744 10.3613 42.1791 10.8738ZM42.087 12.6352H39.5293C39.5652 12.1429 39.5844 11.6387 39.5873 11.1254H42.1791C42.1744 11.6379 42.1445 12.1423 42.087 12.6352ZM41.765 14.3789H39.3293C39.4061 13.8963 39.4658 13.3979 39.5089 12.8868H42.0528C41.9837 13.3976 41.8874 13.8957 41.765 14.3789ZM25.9472 12.8868H28.4911C28.5342 13.3979 28.5939 13.8963 28.6707 14.3789H26.235C26.1131 13.8957 26.0167 13.3976 25.9472 12.8868ZM25.8209 11.1254H28.4127C28.4156 11.6387 28.4348 12.1429 28.4707 12.6352H25.913C25.8555 12.1423 25.8256 11.6379 25.8209 11.1254ZM25.913 9.364H28.4707C28.4348 9.8563 28.4156 10.3605 28.4127 10.8738H25.8209C25.8256 10.3613 25.8555 9.85685 25.913 9.364ZM26.235 7.62024H28.6707C28.5939 8.10288 28.5342 8.60126 28.4911 9.11233H25.9472C26.0163 8.60153 26.1126 8.10343 26.235 7.62024ZM42.0528 9.11233H39.5089C39.4658 8.60126 39.4061 8.10288 39.3293 7.62024H41.765C41.8869 8.10343 41.9833 8.60153 42.0528 9.11233ZM39.1992 10.8738H37.0361C37.0344 10.3712 37.0238 9.86651 37.0033 9.364H39.1365C39.1749 9.85823 39.1958 10.3624 39.1988 10.8738H39.1992ZM39.137 12.6352H37.0037C37.0242 12.1327 37.0348 11.6279 37.0366 11.1254H39.1997C39.1967 11.6368 39.1758 12.1409 39.1374 12.6352H39.137ZM38.9259 14.3789H36.8945C36.9363 13.8883 36.9692 13.3894 36.9926 12.8868H39.1161C39.0704 13.3965 39.0065 13.8949 38.9259 14.3789ZM38.5796 16.006H36.7175C36.7777 15.5589 36.8293 15.0992 36.8724 14.6306H38.8824C38.7971 15.1047 38.6956 15.5639 38.5796 16.006ZM29.1181 14.6306H31.1281C31.1711 15.0992 31.2232 15.5589 31.2829 16.006H29.4209C29.3049 15.5639 29.2034 15.1047 29.1181 14.6306ZM28.8843 12.8868H31.0074C31.0308 13.3891 31.0637 13.8883 31.1055 14.3789H29.0746C28.994 13.8949 28.93 13.3965 28.8843 12.8868ZM28.8008 11.1254H30.9634C30.9652 11.6279 30.9758 12.1327 30.9963 12.6352H28.863C28.8246 12.1409 28.8037 11.6368 28.8008 11.1254ZM28.863 9.364H30.9963C30.9758 9.86651 30.9652 10.3712 30.9634 10.8738H28.8008C28.8037 10.3624 28.8246 9.85823 28.863 9.364ZM29.0741 7.62024H31.105C31.0632 8.11088 31.0304 8.60981 31.0069 9.11233H28.8839C28.9296 8.60264 28.9935 8.10426 29.0741 7.62024ZM29.4204 5.99348H31.2825C31.2223 6.44053 31.1707 6.90027 31.1276 7.36856H29.1176C29.2029 6.89447 29.3044 6.43528 29.4204 5.99348ZM38.8819 7.36856H36.8719C36.8289 6.90027 36.7768 6.44025 36.7171 5.99348H38.5791C38.6951 6.43556 38.7966 6.89475 38.8819 7.36856ZM39.1157 9.11233H36.9922C36.9687 8.61009 36.9359 8.11088 36.8941 7.62024H38.9254C39.006 8.10426 39.07 8.60264 39.1157 9.11233ZM36.6467 10.8738H34.1945V9.364H36.6156C36.6348 9.85327 36.6455 10.3572 36.6472 10.8738H36.6467ZM36.6152 12.6352H34.194V11.1254H36.6463C36.6446 11.642 36.634 12.1459 36.6148 12.6352H36.6152ZM36.5073 14.3789H34.1945V12.8868H36.6045C36.5811 13.401 36.5487 13.8993 36.5073 14.3789ZM36.3265 16.006H34.194V14.6306H36.4838C36.4395 15.1083 36.3866 15.5675 36.3265 16.006ZM36.0531 17.6327H34.194V16.2576H36.2915C36.2207 16.7433 36.1405 17.2025 36.0531 17.6327ZM35.6829 19.1403H34.194V17.8844H35.9998C35.9017 18.3381 35.7959 18.7584 35.6829 19.1403ZM31.9994 17.8844H33.8051V19.1403H32.3162C32.2032 18.7584 32.097 18.3383 31.9994 17.8844ZM31.7077 16.2576H33.8051V17.6327H31.9461C31.8586 17.2022 31.7789 16.743 31.7077 16.2576ZM31.5153 14.6306H33.8051V16.006H31.6727C31.6126 15.5675 31.5597 15.1083 31.5153 14.6306ZM31.395 12.8868H33.8051V14.3789H31.4919C31.4505 13.8993 31.4185 13.401 31.3946 12.8868H31.395ZM31.3528 11.1254H33.8055V12.6352H31.3844C31.3652 12.1459 31.3545 11.642 31.3528 11.1254ZM31.3844 9.364H33.8055V10.8738H31.3528C31.3545 10.3572 31.3652 9.85327 31.3844 9.364ZM31.4923 7.62024H33.8055V9.11233H31.3955C31.4189 8.59822 31.4513 8.09985 31.4927 7.62024H31.4923ZM31.6731 5.99348H33.8055V7.36856H31.5157C31.5601 6.89088 31.613 6.43197 31.6731 5.99348ZM31.9465 4.36672H33.8055V5.74181H31.7081C31.7789 5.25612 31.8591 4.79693 31.9465 4.36672ZM32.3167 2.85917H33.8055V4.11505H31.9998C32.0979 3.66138 32.2037 3.2411 32.3167 2.85917ZM36.0002 4.11505H34.1945V2.85917H35.6833C35.7963 3.2411 35.9025 3.66138 36.0002 4.11505ZM36.2919 5.74181H34.1945V4.36672H36.0535C36.1409 4.79721 36.2207 5.2564 36.2919 5.74181ZM36.4843 7.36856H34.1945V5.99348H36.3269C36.387 6.43197 36.4399 6.89088 36.4843 7.36856ZM36.6045 9.11233H34.1945V7.62024H36.5073C36.5487 8.09985 36.5806 8.59822 36.6045 9.11233ZM36.6821 5.74181C36.6139 5.26551 36.5363 4.80521 36.4493 4.36672H38.0571C38.2247 4.80025 38.3766 5.25999 38.5113 5.74181H36.6821ZM36.3981 4.11505C36.3043 3.66993 36.1998 3.24965 36.0859 2.85917H37.353C37.5701 3.24386 37.7722 3.66414 37.9573 4.11505H36.3985H36.3981ZM36.0096 2.6075C35.871 2.1668 35.7192 1.76998 35.5537 1.42641H36.3235C36.6361 1.75922 36.9316 2.15604 37.2059 2.6075H36.01H36.0096ZM35.4249 1.17474C35.2551 0.863189 35.0726 0.605998 34.8773 0.412553C35.2922 0.565433 35.6923 0.824555 36.0697 1.17474H35.4244H35.4249ZM35.6061 2.6075H34.1945V1.42669H35.1481C35.308 1.75728 35.462 2.15245 35.6066 2.60778L35.6061 2.6075ZM33.8055 2.6075H32.3934C32.538 2.15218 32.692 1.75701 32.8519 1.42641H33.8055V2.6075ZM32.4463 1.42641C32.2809 1.77025 32.1286 2.16708 31.9904 2.6075H30.7946C31.0684 2.15576 31.3639 1.75922 31.677 1.42641H32.4468H32.4463ZM31.9299 1.17474C32.3077 0.824555 32.7073 0.565433 33.1223 0.412553C32.927 0.605998 32.7444 0.863189 32.5747 1.17474H31.9294H31.9299ZM31.9141 2.85917C31.7998 3.24965 31.6957 3.66993 31.6019 4.11505H30.0431C30.2282 3.66414 30.4303 3.24386 30.6474 2.85917H31.9141ZM31.5503 4.36672C31.4633 4.80549 31.3857 5.26578 31.3174 5.74181H29.4882C29.6226 5.25999 29.7748 4.80025 29.9424 4.36672H31.5503ZM31.3174 16.2576C31.3857 16.7339 31.4633 17.1942 31.5503 17.6327H29.9424C29.7748 17.1992 29.623 16.7395 29.4882 16.2576H31.3174ZM31.6015 17.8844C31.6953 18.3295 31.7998 18.7498 31.9137 19.1403H30.647C30.4299 18.7556 30.2278 18.3353 30.0427 17.8844H31.6015ZM31.99 19.3919C32.1286 19.8326 32.2804 20.2295 32.4459 20.573H31.6761C31.3635 20.2402 31.0679 19.8434 30.7937 19.3919H31.9896H31.99ZM32.5747 20.8247C32.7444 21.1363 32.927 21.3934 33.1223 21.5869C32.7073 21.434 32.3073 21.1749 31.9299 20.8247H32.5751H32.5747ZM32.3934 19.3919H33.8055V20.573H32.8519C32.692 20.2424 32.538 19.847 32.3934 19.3919ZM34.194 19.3919H35.6061C35.4616 19.8473 35.3076 20.2424 35.1477 20.573H34.194V19.3919ZM35.5532 20.573C35.7187 20.2292 35.8706 19.8324 36.0092 19.3919H37.205C36.9312 19.8437 36.6357 20.2402 36.3226 20.573H35.5528H35.5532ZM36.0697 20.8247C35.6919 21.1749 35.2922 21.434 34.8773 21.5869C35.0726 21.3934 35.2551 21.1363 35.4249 20.8247H36.0701H36.0697ZM36.0851 19.1403C36.1989 18.7498 36.3034 18.3295 36.3973 17.8844H37.956C37.771 18.3353 37.5688 18.7556 37.3517 19.1403H36.0846H36.0851ZM36.4489 17.6327C36.5359 17.194 36.6135 16.7337 36.6817 16.2576H38.5109C38.3766 16.7395 38.2243 17.1992 38.0567 17.6327H36.4489ZM39.2862 7.36884C39.2044 6.89392 39.1071 6.43501 38.995 5.99375H41.2365C41.4144 6.43528 41.5696 6.89392 41.6997 7.36884H39.2862ZM38.9301 5.74208C38.7996 5.26026 38.6516 4.80052 38.4874 4.367H40.4301C40.6894 4.79997 40.9244 5.25944 41.1312 5.74208H38.9301ZM38.3872 4.11532C38.2064 3.66634 38.0085 3.24579 37.7944 2.85945H39.3327C39.6722 3.24413 39.9887 3.66331 40.2765 4.11532H38.3876H38.3872ZM37.6481 2.60778C37.3829 2.16294 37.0958 1.76722 36.7896 1.42669H37.7117C38.2064 1.75922 38.6721 2.15521 39.1024 2.60778H37.6481ZM36.5495 1.17502C36.2646 0.893268 35.9652 0.656498 35.653 0.472712C36.2305 0.628903 36.7845 0.86788 37.3108 1.17502H36.5495ZM34.1936 0.289201C34.4704 0.387442 34.7502 0.690993 35.0172 1.17502H34.1936V0.289201ZM33.8047 1.17502H32.9811C33.2481 0.691269 33.5275 0.387442 33.8047 0.289201V1.17502ZM31.4488 1.17502H30.6875C31.2138 0.867604 31.7678 0.628903 32.3452 0.472712C32.0331 0.656774 31.7341 0.893544 31.4488 1.17502ZM31.2091 1.42669C30.9029 1.7675 30.6154 2.16294 30.3506 2.60778H28.8963C29.3266 2.15521 29.7923 1.75894 30.287 1.42669H31.2091ZM30.2043 2.85945C29.9898 3.24579 29.7923 3.66634 29.6115 4.11532H27.7226C28.0105 3.66331 28.3265 3.24413 28.6664 2.85945H30.2047H30.2043ZM29.5113 4.367C29.3471 4.8008 29.1991 5.26026 29.0686 5.74208H26.8675C27.0748 5.25916 27.3094 4.79997 27.5687 4.367H29.5113ZM29.0038 5.99375C28.8916 6.43528 28.7939 6.8942 28.7125 7.36884H26.299C26.4291 6.89392 26.5848 6.43501 26.7622 5.99375H29.0038ZM28.712 14.6306C28.7939 15.1055 28.8916 15.5644 29.0038 16.006H26.7622C26.5843 15.5644 26.4291 15.1055 26.299 14.6306H28.7125H28.712ZM29.0682 16.2576C29.1987 16.7395 29.3467 17.1992 29.5108 17.6327H27.5682C27.3089 17.1998 27.0739 16.7403 26.8671 16.2576H29.0682ZM29.6111 17.8844C29.7919 18.3334 29.9898 18.7539 30.2039 19.1403H28.6656C28.3261 18.7556 28.0096 18.3364 27.7222 17.8844H29.6111ZM30.3502 19.3919C30.6154 19.8368 30.9025 20.2325 31.2087 20.573H30.2866C29.7919 20.2405 29.3262 19.8445 28.8959 19.3919H30.3502ZM31.4488 20.8247C31.7341 21.1065 32.0331 21.3432 32.3452 21.5273C31.7678 21.3711 31.2134 21.1321 30.6875 20.8247H31.4488ZM33.8047 21.7105C33.5279 21.6123 33.2481 21.3085 32.9811 20.8247H33.8047V21.7105ZM34.1936 20.8247H35.0172C34.7502 21.3085 34.4708 21.6123 34.1936 21.7105V20.8247ZM36.5495 20.8247H37.3108C36.7845 21.1321 36.2301 21.3708 35.653 21.5273C35.9652 21.3432 36.2646 21.1065 36.5495 20.8247ZM36.7892 20.573C37.0954 20.2322 37.3824 19.8368 37.6477 19.3919H39.102C38.6717 19.8445 38.206 20.2408 37.7112 20.573H36.7892ZM37.794 19.1403C38.0085 18.7539 38.206 18.3334 38.3868 17.8844H40.2757C39.9878 18.3364 39.6718 18.7556 39.3323 19.1403H37.794ZM38.487 17.6327C38.6512 17.1989 38.7992 16.7395 38.9297 16.2576H41.1308C40.9235 16.7406 40.6889 17.1998 40.4296 17.6327H38.487ZM38.9945 16.006C39.1067 15.5644 39.2044 15.1055 39.2862 14.6306H41.6997C41.5696 15.1055 41.414 15.5644 41.2365 16.006H38.995H38.9945ZM42.0895 7.36884C41.9599 6.89502 41.8063 6.43556 41.6298 5.99375H43.8291C44.0705 6.43528 44.2816 6.89392 44.4586 7.36884H42.0895ZM41.5257 5.74208C41.3206 5.26082 41.0886 4.80135 40.8318 4.367H42.7344C43.0866 4.79997 43.4056 5.25944 43.6867 5.74208H41.5257ZM40.6783 4.11532C40.3968 3.66662 40.0893 3.24634 39.7575 2.85945H41.2434C41.7048 3.24413 42.1343 3.66331 42.5249 4.11532H40.6779H40.6783ZM39.5332 2.60778C39.125 2.16377 38.6845 1.7675 38.2162 1.42669H39.0419C39.714 1.75922 40.3465 2.15521 40.9312 2.60778H39.5336H39.5332ZM37.8503 1.17502C37.5027 0.949563 37.1415 0.753359 36.7687 0.589717C37.3662 0.738457 37.9433 0.936593 38.4977 1.17502H37.8507H37.8503ZM30.148 1.17502H29.501C30.0555 0.936593 30.6325 0.738457 31.23 0.589717C30.8573 0.753635 30.496 0.949563 30.1484 1.17502H30.148ZM29.7821 1.42669C29.3138 1.76777 28.8733 2.16377 28.4651 2.60778H27.0675C27.6522 2.15521 28.2847 1.75894 28.9569 1.42669H29.7825H29.7821ZM28.2408 2.85945C27.909 3.24634 27.6015 3.66662 27.32 4.11532H25.4729C25.8636 3.66331 26.293 3.24413 26.7545 2.85945H28.2404H28.2408ZM27.1669 4.367C26.9102 4.80163 26.6777 5.26082 26.473 5.74208H24.312C24.5931 5.25916 24.9121 4.79997 25.2644 4.367H27.1669ZM26.369 5.99375C26.1924 6.43556 26.0389 6.89502 25.9092 7.36884H23.5401C23.7171 6.89392 23.9282 6.43501 24.1696 5.99375H26.369ZM25.9092 14.6306C26.0389 15.1044 26.1924 15.5642 26.369 16.006H24.1696C23.9282 15.5644 23.7171 15.1055 23.5401 14.6306H25.9092ZM26.473 16.2576C26.6782 16.7389 26.9102 17.1984 27.1669 17.6327H25.2644C24.9121 17.1998 24.5931 16.7403 24.312 16.2576H26.473ZM27.3204 17.8844C27.6019 18.3331 27.9094 18.7534 28.2412 19.1403H26.7549C26.2935 18.7556 25.864 18.3364 25.4733 17.8844H27.3204ZM28.4655 19.3919C28.8737 19.836 29.3142 20.232 29.7825 20.573H28.9569C28.2847 20.2405 27.6522 19.8445 27.0675 19.3919H28.4651H28.4655ZM30.1484 20.8247C30.4965 21.0502 30.8577 21.2464 31.2304 21.4103C30.6329 21.2615 30.0559 21.0631 29.5015 20.8247H30.1489H30.1484ZM37.8507 20.8247H38.4981C37.9437 21.0631 37.3666 21.2615 36.7691 21.4103C37.1419 21.2464 37.5031 21.0502 37.8511 20.8247H37.8507ZM38.2166 20.573C38.6849 20.232 39.1255 19.836 39.5336 19.3919H40.9312C40.3465 19.8445 39.714 20.2408 39.0419 20.573H38.2162H38.2166ZM39.7579 19.1403C40.0897 18.7534 40.3972 18.3331 40.6787 17.8844H42.5258C42.1351 18.3364 41.7057 18.7556 41.2442 19.1403H39.7579ZM40.8318 17.6327C41.0886 17.1981 41.321 16.7389 41.5257 16.2576H43.6867C43.4056 16.7406 43.0866 17.1998 42.7344 17.6327H40.8318ZM41.6298 16.006C41.8063 15.5642 41.9599 15.1044 42.0895 14.6306H44.4586C44.2816 15.1055 44.0705 15.5644 43.8291 16.006H41.6298ZM42.5685 10.874C42.5638 10.3619 42.5322 9.85768 42.4751 9.36427H44.984C45.0621 9.85713 45.103 10.3616 45.109 10.874H42.5685ZM45.3312 9.1126C45.2387 8.60236 45.109 8.10426 44.9452 7.62051H47.5092C47.7216 8.10371 47.8897 8.60181 48.0099 9.1126H45.3312ZM44.8565 7.36884C44.6829 6.89502 44.4765 6.43556 44.2394 5.99375H46.5902C46.8994 6.43528 47.1698 6.89392 47.3962 7.36884H44.8565ZM44.0999 5.74208C43.8249 5.26082 43.5131 4.80135 43.1685 4.367H45.1879C45.6391 4.79997 46.0477 5.25944 46.4081 5.74208H44.0999ZM42.9629 4.11532C42.5855 3.66662 42.1727 3.24634 41.7274 2.85945H43.279C43.8701 3.24413 44.4202 3.66331 44.9209 4.11532H42.9634H42.9629ZM41.4263 2.60778C40.8787 2.16377 40.2872 1.7675 39.6586 1.42669H40.4582C41.3193 1.75922 42.1296 2.15521 42.8781 2.60778H41.4259H41.4263ZM28.341 1.42669C27.7128 1.76777 27.1213 2.16377 26.5732 2.60778H25.1211C25.87 2.15521 26.6803 1.75894 27.5409 1.42669H28.3406H28.341ZM26.2726 2.85945C25.8273 3.24634 25.4145 3.66662 25.0371 4.11532H23.0795C23.5802 3.66331 24.1304 3.24413 24.7215 2.85945H26.273H26.2726ZM24.8311 4.367C24.4865 4.80163 24.1747 5.26082 23.8996 5.74208H21.5915C21.9519 5.25916 22.36 4.79997 22.8117 4.367H24.8311ZM23.7602 5.99375C23.523 6.43556 23.3171 6.89502 23.143 7.36884H20.6033C20.8298 6.89392 21.1002 6.43501 21.4094 5.99375H23.7602ZM23.0543 7.62051C22.8906 8.10426 22.7609 8.60236 22.6684 9.1126H19.9892C20.1095 8.60181 20.2771 8.10371 20.4899 7.62051H23.0539H23.0543ZM22.6257 9.36427C22.5485 9.85768 22.5063 10.3619 22.4999 10.874H19.7696C19.7773 10.3616 19.8297 9.85713 19.9299 9.36427H22.6257ZM19.7696 11.1257H22.4999C22.5059 11.6379 22.5481 12.142 22.6257 12.6354H19.9295C19.8293 12.1426 19.7773 11.6381 19.7691 11.1257H19.7696ZM22.6684 12.8871C22.7609 13.3974 22.8906 13.8955 23.0543 14.3792H20.4903C20.2779 13.896 20.1099 13.3979 19.9896 12.8871H22.6684ZM23.143 14.6309C23.3166 15.1047 23.523 15.5644 23.7602 16.0062H21.4094C21.1002 15.5647 20.8298 15.1058 20.6033 14.6309H23.143ZM23.8996 16.2579C24.1747 16.7392 24.4865 17.1987 24.8311 17.633H22.8117C22.3605 17.2 21.9519 16.7406 21.5915 16.2579H23.8996ZM25.0366 17.8847C25.4141 18.3334 25.8269 18.7537 26.2721 19.1405H24.7206C24.1295 18.7559 23.5798 18.3367 23.0791 17.8847H25.0366ZM26.5732 19.3922C27.1208 19.8362 27.7124 20.2322 28.3406 20.5733H27.5409C26.6799 20.2408 25.87 19.8448 25.1211 19.3922H26.5732ZM39.6594 20.5733C40.2876 20.2322 40.8792 19.8362 41.4268 19.3922H42.8789C42.13 19.8448 41.3197 20.2411 40.4591 20.5733H39.6594ZM41.7279 19.1405C42.1731 18.7537 42.5859 18.3334 42.9634 17.8847H44.9209C44.4202 18.3367 43.8705 18.7559 43.2794 19.1405H41.7279ZM43.1694 17.633C43.514 17.1984 43.8257 16.7392 44.1008 16.2579H46.4089C46.0485 16.7408 45.6404 17.2 45.1888 17.633H43.1694ZM44.2403 16.0062C44.4774 15.5644 44.6834 15.1047 44.8574 14.6309H47.3971C47.1706 15.1058 46.9002 15.5647 46.591 16.0062H44.2403ZM44.9461 14.3792C45.1099 13.8955 45.2395 13.3974 45.3321 12.8871H48.0108C47.8905 13.3979 47.7229 13.896 47.5101 14.3792H44.9461ZM45.3747 12.6354C45.4519 12.142 45.4941 11.6379 45.5005 11.1257H48.2309C48.2232 11.6381 48.1707 12.1426 48.0705 12.6354H45.3747ZM50.3496 9.1126H48.4078C48.2901 8.60236 48.1251 8.10426 47.917 7.62051H49.7653C50.0135 8.10371 50.2089 8.60181 50.3496 9.1126ZM49.6335 7.36884H47.8044C47.5835 6.89502 47.3216 6.43556 47.0201 5.99375H48.6932C49.054 6.43528 49.3696 6.89392 49.634 7.36884H49.6335ZM48.4799 5.74208H46.8422C46.4925 5.26082 46.0959 4.80135 45.6579 4.367H47.0563C47.583 4.79997 48.0594 5.25944 48.4799 5.74208ZM46.7441 4.11532H45.3965C44.9167 3.66662 44.3917 3.24634 43.8253 2.85945H44.8284C45.518 3.24413 46.1599 3.66331 46.7441 4.11532ZM44.361 2.60778H43.4423C42.7459 2.16377 41.994 1.7675 41.1948 1.42669H41.5364C42.5412 1.75922 43.4867 2.15521 44.3605 2.60778H44.361ZM40.7235 1.17502H40.5708C40.4215 1.11817 40.2706 1.06353 40.1183 1.01055C40.3222 1.06298 40.5239 1.11762 40.7235 1.17502ZM27.8817 1.01055C27.7294 1.06353 27.5785 1.11845 27.4292 1.17502H27.2765C27.4761 1.11762 27.6783 1.06298 27.8817 1.01055ZM26.4628 1.42669H26.8048C26.006 1.76777 25.2537 2.16377 24.5573 2.60778H23.6386C24.5125 2.15521 25.458 1.75894 26.4628 1.42669ZM23.1716 2.85945H24.1747C23.6088 3.24634 23.0838 3.66662 22.6035 4.11532H21.2559C21.8401 3.66331 22.482 3.24413 23.1716 2.85945ZM20.9437 4.367H22.3421C21.9041 4.80163 21.5075 5.26082 21.1578 5.74208H19.5201C19.9406 5.25916 20.417 4.79997 20.9437 4.367ZM19.3073 5.99375H20.9804C20.6788 6.43556 20.417 6.89502 20.1961 7.36884H18.3664C18.6309 6.89392 18.9465 6.43501 19.3073 5.99375ZM18.2347 7.62051H20.083C19.8749 8.10426 19.7099 8.60236 19.5922 9.1126H17.6504C17.7907 8.60181 17.9865 8.10371 18.2347 7.62051ZM17.6504 12.8868H19.5926C19.7103 13.3971 19.8753 13.8952 20.0835 14.3789H18.2347C17.9865 13.8957 17.7911 13.3976 17.6504 12.8868ZM18.3664 14.6306H20.1961C20.417 15.1044 20.6788 15.5642 20.9804 16.006H19.3073C18.9465 15.5644 18.6309 15.1055 18.3664 14.6306ZM19.5201 16.2576H21.1578C21.5075 16.7389 21.9041 17.1984 22.3421 17.6327H20.9437C20.417 17.1998 19.9406 16.7403 19.5201 16.2576ZM21.2559 17.8844H22.6035C23.0833 18.3331 23.6083 18.7534 24.1743 19.1403H23.1712C22.4816 18.7556 21.8397 18.3364 21.2554 17.8844H21.2559ZM23.6386 19.3919H24.5573C25.2537 19.836 26.0056 20.232 26.8044 20.573H26.4624C25.458 20.2405 24.5121 19.8445 23.6386 19.3919ZM27.2761 20.8247H27.4288C27.5785 20.8816 27.7294 20.9365 27.8817 20.9895C27.6778 20.937 27.4757 20.8824 27.2761 20.8247ZM40.1187 20.9895C40.271 20.9365 40.422 20.8816 40.5717 20.8247H40.7243C40.5247 20.8821 40.3226 20.937 40.1187 20.9895ZM41.5376 20.5733H41.1956C41.9944 20.2322 42.7463 19.8362 43.4427 19.3922H44.3614C43.4875 19.8448 42.542 20.2411 41.5376 20.5733ZM44.8288 19.1405H43.8257C44.3917 18.7537 44.9167 18.3334 45.3965 17.8847H46.7441C46.1599 18.3367 45.518 18.7559 44.8284 19.1405H44.8288ZM47.0567 17.633H45.6583C46.0963 17.1984 46.4929 16.7392 46.8427 16.2579H48.4803C48.0598 16.7408 47.5835 17.2 47.0567 17.633ZM48.6932 16.0062H47.0201C47.3216 15.5644 47.5835 15.1047 47.8044 14.6309H49.6335C49.3691 15.1058 49.0535 15.5647 48.6927 16.0062H48.6932ZM49.7658 14.3792H47.9174C48.1255 13.8955 48.2906 13.3974 48.4083 12.8871H50.35C50.2097 13.3979 50.014 13.896 49.7658 14.3792Z" fill="url(#paint1_linear_1088_56)"/>
<defs>
<linearGradient id="paint0_linear_1088_56" x1="0" y1="11" x2="34" y2="11" gradientUnits="userSpaceOnUse">
<stop stop-color="#232526"/>
<stop offset="1" stop-color="#414345"/>
</linearGradient>
<linearGradient id="paint1_linear_1088_56" x1="17" y1="11" x2="51" y2="11" gradientUnits="userSpaceOnUse">
<stop stop-color="#232526"/>
<stop offset="1" stop-color="#414345"/>
</linearGradient>
</defs>
</svg>
