<svg width="45" height="96" viewBox="0 0 45 96" fill="none" xmlns="http://www.w3.org/2000/svg">
<path d="M18.0056 54.3223C17.0285 54.0069 13.1064 56.736 11.3617 57.9977C10.8871 58.3406 10.1334 58.3269 9.67277 57.9703C9.21216 57.6137 9.1982 57.024 9.65881 56.6537C11.7106 54.9806 16.889 50.6743 16.54 50.0297C16.1213 49.2343 4.89919 49.0011 1.18641 48.9463C0.530395 48.9326 -2.12093e-06 48.5211 -2.09875e-06 48.0137C-2.07657e-06 47.5063 0.530395 47.0811 1.18641 47.0811C4.89919 47.0263 16.1213 46.7931 16.54 45.9977C16.875 45.3531 11.7106 41.0469 9.65881 39.3737C9.1982 39.0034 9.21216 38.4137 9.68672 38.0571C10.1473 37.7006 10.8871 37.6869 11.3756 38.0297C13.1203 39.2914 17.0564 42.0206 18.0195 41.7051C20.6297 40.8411 21.2159 6.96686 21.2996 0.918858C21.3136 0.41143 21.844 9.54831e-07 22.5 9.83506e-07C23.156 1.01218e-06 23.6864 0.41143 23.7004 0.918858C23.7841 6.96686 24.3704 40.8274 26.9944 41.6914C27.9575 42.0069 31.8797 39.2914 33.6244 38.0297C34.1129 37.6869 34.8527 37.7006 35.3133 38.0571C35.7739 38.4137 35.7739 39.0034 35.3272 39.36C33.2894 41.0331 28.111 45.3394 28.46 45.984C28.8787 46.7794 40.1008 47.0126 43.8136 47.0674C44.4696 47.0811 45 47.4926 45 48C45 48.5074 44.4696 48.9326 43.8136 48.9326C40.1008 48.9874 28.8787 49.2206 28.46 50.016C28.111 50.6606 33.2894 54.9669 35.3412 56.64C35.8018 57.0103 35.7878 57.6 35.3133 57.9566C34.8527 58.3131 34.1129 58.3269 33.6244 57.984C31.8797 56.7223 27.9435 53.9931 26.9805 54.3086C24.3424 55.1589 23.7702 89.0331 23.6864 95.0811C23.6725 95.5886 23.1421 96 22.486 96C21.83 96 21.2996 95.5886 21.2857 95.0811C21.2159 89.0331 20.6297 55.1726 18.0056 54.3223Z" fill="black"/>
</svg>
