<svg width="31" height="31" viewBox="0 0 31 31" fill="none" xmlns="http://www.w3.org/2000/svg">
    <path
        d="M31 15.5C22.6111 16.2664 19.1209 16.953 17.3935 20.7006C17.1632 21.1746 16.9683 21.7106 16.8 22.2954C16.1843 24.3774 15.8521 27.1815 15.5066 31C15.1523 27.1815 14.8201 24.3774 14.2045 22.2954C14.0317 21.7106 13.8413 21.1746 13.6109 20.7006C11.8836 16.953 8.39334 16.2664 0 15.5C8.38891 14.7336 11.8836 14.047 13.6109 10.2994C13.8413 9.82538 14.045 9.28937 14.2045 8.69577C14.8201 6.61375 15.1523 3.81852 15.5066 0C15.8477 3.81852 16.1843 6.61375 16.8 8.69577C16.9727 9.28937 17.1632 9.82538 17.3935 10.2994C19.1209 14.047 22.6111 14.7336 31 15.5Z"
        fill="black"
    />
</svg>
